cl = .4;
Point(1) = {0, 0, 0, cl};
Point(2) = {1, 0, 0, cl};
Point(3) = {1, 1, 0, cl};
Point(4) = {0, 1, 0, cl};
Point(5) = {0.25, 0.25, 0, cl};
Point(6) = {0.75, 0.25, 0, cl};
Point(7) = {0.75, 0.75, 0, cl};
Point(8) = {0.25, 0.75, 0, cl};
Point(9) = {0, 1, 0.4, cl};
Point(10) = {0, 0, 0.4, cl};
Point(14) = {1, 0, 0.4, cl};
Point(18) = {1, 1, 0.4, cl};
Point(25) = {0.25, 0.75, 0.4, cl};
Point(26) = {0.75, 0.75, 0.4, cl};
Point(30) = {0.75, 0.25, 0.4, cl};
Point(34) = {0.25, 0.25, 0.4, cl};
Line(1) = {1, 2};
Line(2) = {2, 2};
Line(3) = {2, 3};
Line(4) = {3, 4};
Line(5) = {4, 1};
Line(6) = {5, 6};
Line(7) = {6, 7};
Line(8) = {7, 8};
Line(9) = {8, 5};
Line(15) = {9, 10};
Line(16) = {10, 14};
Line(17) = {14, 18};
Line(18) = {18, 9};
Line(19) = {25, 26};
Line(20) = {26, 30};
Line(21) = {30, 34};
Line(22) = {34, 25};
Line(24) = {4, 9};
Line(25) = {1, 10};
Line(29) = {2, 14};
Line(33) = {3, 18};
Line(40) = {8, 25};
Line(41) = {7, 26};
Line(45) = {6, 30};
Line(49) = {5, 34};

Line Loop(12) = {5, 1, 3, 4, -8, -7, -6, -9};
Plane Surface(12) = {12};
Line Loop(13) = {9, 6, 7, 8};
Plane Surface(13) = {13};
Line Loop(26) = {5, 25, -15, -24};
Ruled Surface(26) = {26};
Line Loop(30) = {1, 29, -16, -25};
Ruled Surface(30) = {30};
Line Loop(34) = {3, 33, -17, -29};
Ruled Surface(34) = {34};
Line Loop(38) = {4, 24, -18, -33};
Ruled Surface(38) = {38};
Line Loop(42) = {-8, 41, -19, -40};
Ruled Surface(42) = {42};
Line Loop(46) = {-7, 45, -20, -41};
Ruled Surface(46) = {46};
Line Loop(50) = {-6, 49, -21, -45};
Ruled Surface(50) = {50};
Line Loop(54) = {-9, 40, -22, -49};
Ruled Surface(54) = {54};
Line Loop(55) = {15, 16, 17, 18, 19, 20, 21, 22};
Plane Surface(55) = {55};
Line Loop(77) = {-22, -21, -20, -19};
Plane Surface(77) = {77};
Surface Loop(1) = {12, 55, 26, 30, 34, 38, 42, 46, 50, 54};
Volume(1) = {1};
Surface Loop(2) = {13, 77, 54, 50, 46, 42};
Volume(2) = {2};



Physical Line(10) = {5,15,24,25};
Physical Surface(10) = {26};

Physical Point(51) = {2,3,14,18};
Physical Line(51) = {3,17,33,39};
Physical Surface(51) = {34};

Physical Surface(2000) = {12, 13, 30, 38, 42, 46, 50, 54, 55, 77};
Physical Volume(3000) = {1};	// porous medium
Physical Volume(3001) = {2};
